HIERARCHY
ROOT joint_Root
{
  OFFSET 0 0 0
  CHANNELS 6 Xposition Yposition Zposition Zrotation Xrotation Yrotation
  JOINT Hips
  {
    OFFSET 0.847027 93.984 -452.225
    CHANNELS 6 Xposition Yposition Zposition Zrotation Xrotation Yrotation
    JOINT Spine
    {
      OFFSET 15.7357 0 0
      CHANNELS 6 Xposition Yposition Zposition Zrotation Xrotation Yrotation
      JOINT Chest
      {
        OFFSET 8.98455 -0.406207 0
        CHANNELS 6 Xposition Yposition Zposition Zrotation Xrotation Yrotation
        JOINT Neck
        {
          OFFSET 16.3773 0 0
          CHANNELS 6 Xposition Yposition Zposition Zrotation Xrotation Yrotation
          JOINT Head
          {
            OFFSET 6.45672 0 0
            CHANNELS 6 Xposition Yposition Zposition Zrotation Xrotation Yrotation
            End Site
            {
              OFFSET 0 0 0
            }
          }
        }
        JOINT Shoulder_L
        {
          OFFSET 12.9942 -0.242716 4.98039
          CHANNELS 6 Xposition Yposition Zposition Zrotation Xrotation Yrotation
          JOINT UpperArm_L
          {
            OFFSET 5.34809 0 0
            CHANNELS 6 Xposition Yposition Zposition Zrotation Xrotation Yrotation
            JOINT LowerArm_L
            {
              OFFSET 24.3286 1.87007e-05 0
              CHANNELS 6 Xposition Yposition Zposition Zrotation Xrotation Yrotation
              JOINT Hand_L
              {
                OFFSET 22.2916 0 0
                CHANNELS 6 Xposition Yposition Zposition Zrotation Xrotation Yrotation
                End Site
                {
                  OFFSET 0 0 0
                }
              }
            }
          }
        }
        JOINT Shoulder_R
        {
          OFFSET 12.9945 -0.242716 -4.98039
          CHANNELS 6 Xposition Yposition Zposition Zrotation Xrotation Yrotation
          JOINT UpperArm_R
          {
            OFFSET -5.34813 0 0
            CHANNELS 6 Xposition Yposition Zposition Zrotation Xrotation Yrotation
            JOINT LowerArm_R
            {
              OFFSET -24.3289 0.000322201 0
              CHANNELS 6 Xposition Yposition Zposition Zrotation Xrotation Yrotation
              JOINT Hand_R
              {
                OFFSET -22.2915 -0.000108084 0
                CHANNELS 6 Xposition Yposition Zposition Zrotation Xrotation Yrotation
                End Site
                {
                  OFFSET 0 0 0
                }
              }
            }
          }
        }
      }
    }
    JOINT UpperLeg_L
    {
      OFFSET -2.19248 -6.46944 0
      CHANNELS 6 Xposition Yposition Zposition Zrotation Xrotation Yrotation
      JOINT LowerLeg_L
      {
        OFFSET 39.0811 0 -1.23785e-05
        CHANNELS 6 Xposition Yposition Zposition Zrotation Xrotation Yrotation
        JOINT Foot_L
        {
          OFFSET 40.9854 0 -1.26872e-05
          CHANNELS 6 Xposition Yposition Zposition Zrotation Xrotation Yrotation
          JOINT Toes_L
          {
            OFFSET 11.7543 0 0
            CHANNELS 6 Xposition Yposition Zposition Zrotation Xrotation Yrotation
            End Site
            {
              OFFSET 0 0 0
            }
          }
        }
      }
    }
    JOINT UpperLeg_R
    {
      OFFSET -2.19251 6.46944 0
      CHANNELS 6 Xposition Yposition Zposition Zrotation Xrotation Yrotation
      JOINT LowerLeg_R
      {
        OFFSET -39.0811 -0.00228153 -0.0401928
        CHANNELS 6 Xposition Yposition Zposition Zrotation Xrotation Yrotation
        JOINT Foot_R
        {
          OFFSET -40.9854 0 0
          CHANNELS 6 Xposition Yposition Zposition Zrotation Xrotation Yrotation
          JOINT Toes_R
          {
            OFFSET -11.7543 0 0
            CHANNELS 6 Xposition Yposition Zposition Zrotation Xrotation Yrotation
            End Site
            {
              OFFSET 0 0 0
            }
          }
        }
      }
    }
  }
}
MOTION
Frames:	4
Frame Time:	0.0333333
0 0 0 0 0 -0 -5.18232 92.6525 376.744 89.1841 -5.99556 3.34321 15.7357 5.1072e-06 -5.51765e-07 98.1375 86.2345 -97.7215 8.98455 -0.406207 -4.3199e-07 -0.314402 1.03644 0.834293 16.3773 -1.3905e-06 -6.99897e-07 0.399328 1.06435 -0.0475 6.45672 -1.25837e-06 -1.02172e-07 6.24947 0.531753 -2.66423 12.9942 -0.242716 4.98039 -92.3226 9.55553 -91.2702 5.34809 -7.22636e-06 -6.2814e-07 -63.038 16.9736 2.27194 24.3286 1.87007e-05 4.90208e-06 0.186255 0.546495 -18.9133 22.2916 -9.88446e-07 4.63217e-06 14.6081 5.5596 -9.16229 12.9945 -0.242716 -4.98039 87.8693 10.5725 -93.5376 -5.34813 -1.25947e-06 -3.79883e-06 -65.1322 17.3163 5.48952 -24.3289 0.000322201 -8.65921e-06 4.11052 6.53671 -32.2733 -22.2915 -0.000108084 -4.47941e-06 12.4428 5.43625 -4.15489 -2.19248 -6.46944 -1.22533e-07 -171.342 -9.66363 -8.84744 39.0811 -6.73843e-06 -1.23785e-05 0.109057 -0.0784105 50.5982 40.9854 -6.48686e-06 -1.26872e-05 -1.59489 -2.60826 -61.0765 11.7543 -2.30145e-07 3.05095e-06 0.0589088 -0.0936925 -18.2404 -2.19251 6.46944 -1.45247e-06 -174.41 23.8164 173.124 -39.0811 -0.00228153 -0.0401928 0.0853333 -0.23892 16.9613 -40.9854 7.72618e-06 5.99936e-06 10.0227 20.639 -60.712 -11.7543 -5.6619e-06 -5.58687e-06 -0.169667 0.182651 -14.74 
0 0 0 0 0 -0 -5.15532 92.4984 374.761 88.7577 -4.28372 3.26456 15.7357 5.1072e-06 -5.51765e-07 90.3815 86.4949 -89.6684 8.98455 -0.406207 -4.3199e-07 -0.755555 -0.00633964 1.42535 16.3773 -1.3905e-06 -6.99897e-07 0.52809 0.75362 -0.298816 6.45672 -1.25837e-06 -1.02172e-07 6.37124 0.892886 -2.74849 12.9942 -0.242716 4.98039 -92.3021 9.7193 -91.6067 5.34809 -7.22636e-06 -6.2814e-07 -60.6181 16.4975 -1.99187 24.3286 1.87007e-05 4.90208e-06 -0.193671 -0.462943 -22.6386 22.2916 -9.88446e-07 4.63217e-06 15.9238 5.56721 -9.54362 12.9945 -0.242716 -4.98039 87.6463 10.5534 -92.3519 -5.34813 -1.25947e-06 -3.79883e-06 -65.9929 16.1889 10.6827 -24.3289 0.000322201 -8.65921e-06 4.11558 7.56857 -28.6561 -22.2915 -0.000108084 -4.47941e-06 11.3832 5.43177 -3.99866 -2.19248 -6.46944 -1.22533e-07 -170.497 -9.22302 -5.37611 39.0811 -6.73843e-06 -1.23785e-05 0.133908 -0.0914314 51.8246 40.9854 -6.48686e-06 -1.26872e-05 -2.97554 -0.31094 -60.2199 11.7543 -2.30145e-07 3.05095e-06 0.0676692 -0.108164 -18.4945 -2.19251 6.46944 -1.45247e-06 -173.244 24.347 171.427 -39.0811 -0.00228153 -0.0401928 0.0757972 -0.209917 16.919 -40.9854 7.72618e-06 5.99936e-06 10.0009 19.5785 -59.0326 -11.7543 -5.6619e-06 -5.58687e-06 -0.16679 0.167613 -15.2966 
0 0 0 0 0 -0 -5.09586 92.2425 372.573 88.2651 -2.38372 3.19769 15.7357 5.1072e-06 -5.51765e-07 79.7143 86.6853 -78.7145 8.98455 -0.406207 -4.3199e-07 -1.23142 -1.26195 1.98528 16.3773 -1.3905e-06 -6.99897e-07 0.887894 0.368917 -0.536114 6.45672 -1.25837e-06 -1.02172e-07 6.65743 1.11346 -2.48749 12.9942 -0.242716 4.98039 -92.1931 9.49598 -91.9319 5.34809 -7.22636e-06 -6.2814e-07 -58.7419 16.0555 -6.10066 24.3286 1.87007e-05 4.90208e-06 -0.716695 -1.44771 -26.3251 22.2916 -9.88446e-07 4.63217e-06 17.0786 5.57103 -9.74007 12.9945 -0.242716 -4.98039 87.4639 10.3922 -91.2042 -5.34813 -1.25947e-06 -3.79883e-06 -66.3754 14.1025 15.455 -24.3289 0.000322201 -8.65921e-06 4.13491 9.0764 -24.6312 -22.2915 -0.000108084 -4.47941e-06 10.8541 5.41747 -3.51292 -2.19248 -6.46944 -1.22534e-07 -169.428 -8.51681 -2.19238 39.0811 -6.73843e-06 -1.23785e-05 0.166597 -0.114827 51.8451 40.9854 -6.48686e-06 -1.26872e-05 -5.46124 3.05226 -57.7093 11.7543 -2.30145e-07 3.05095e-06 0.0725846 -0.116351 -18.6381 -2.19251 6.46944 -1.45247e-06 -172.045 24.2834 169.338 -39.0811 -0.00228153 -0.0401928 0.0700306 -0.185401 17.2739 -40.9854 7.72618e-06 5.99936e-06 9.89109 17.8911 -57.3173 -11.7543 -5.6619e-06 -5.58687e-06 -0.153201 0.138083 -15.9248 
0 0 0 0 0 -0 -4.96403 91.8746 370.105 87.8444 -0.6822 3.28247 15.7357 5.1072e-06 -5.51765e-07 69.2282 86.6719 -68.0105 8.98455 -0.406207 -4.3199e-07 -1.5156 -2.45865 2.40247 16.3773 -1.3905e-06 -6.99897e-07 1.19606 -0.0253577 -0.658081 6.45672 -1.25837e-06 -1.02172e-07 7.02771 1.3614 -2.28152 12.9942 -0.242716 4.98039 -92.0603 9.20173 -92.3221 5.34809 -7.22636e-06 -6.2814e-07 -56.898 15.5432 -9.75963 24.3286 1.87007e-05 4.90208e-06 -1.27557 -2.16221 -30.542 22.2916 -9.88446e-07 4.63217e-06 18.1341 5.57365 -9.87599 12.9945 -0.242716 -4.98039 87.2978 10.099 -89.935 -5.34813 -1.25947e-06 -3.79883e-06 -65.9619 10.9715 19.3595 -24.3289 0.000322201 -8.65921e-06 4.15509 11.1657 -20.574 -22.2915 -0.000108084 -4.47941e-06 10.8003 5.38658 -2.50591 -2.19248 -6.46944 -1.22534e-07 -168.369 -7.82015 0.868437 39.0811 -6.73843e-06 -1.23785e-05 0.190924 -0.137905 50.6967 40.9854 -6.48686e-06 -1.26872e-05 -7.97975 7.87731 -55.4169 11.7543 -2.30145e-07 3.05095e-06 0.0803023 -0.129277 -18.8643 -2.19251 6.46944 -1.45247e-06 -171.02 24.558 166.889 -39.0811 -0.00228153 -0.0401928 0.0666115 -0.160652 18.2694 -40.9854 7.72618e-06 5.99936e-06 9.93601 16.7374 -56.1905 -11.7543 -5.6619e-06 -5.58687e-06 -0.130746 0.141951 -15.2053 
